<svg xmlns="http://www.w3.org/2000/svg" width="18.766" height="18.764" viewBox="0 0 18.766 18.764">
  <path id="联合_24" data-name="联合 24" d="M19992.383-1875.235a9.332,9.332,0,0,1-6.637-2.746,9.328,9.328,0,0,1-2.746-6.636,9.31,9.31,0,0,1,2.746-6.636,9.311,9.311,0,0,1,6.637-2.746h.553a9.454,9.454,0,0,1,6.273,2.952,9.344,9.344,0,0,1,2.557,6.43,9.35,9.35,0,0,1-2.139,5.943,9.484,9.484,0,0,1-5.367,3.218,6.3,6.3,0,0,1-1.439.221Zm-8.092-9.382a8.076,8.076,0,0,0,7.555,8.082v-3.574l-1.561-2.118,3.3-3.3,1.572,1.571h2.945l1.934,1.933a8.971,8.971,0,0,0,.436-2.706,8.061,8.061,0,0,0-2.127-5.461,8.257,8.257,0,0,0-5.156-2.625l-2.193,2.189,1.49,1.491v2.922l-2.609,2.61-4.779-4.563A8.4,8.4,0,0,0,19984.291-1884.617Zm7.785,2.415,1.059,1.591v4.071a9.147,9.147,0,0,0,3.35-1.069,7.566,7.566,0,0,0,2.35-2.128v-1.672l-1.25-1.255h-2.953l-1.049-1.049Zm-3.9-9.317a7.862,7.862,0,0,0-2.324,2.194l4.021,4.021,1.314-1.32v-1.882l-2-2.008,2.053-2.053A7.493,7.493,0,0,0,19988.176-1891.519Z" transform="translate(-19983 1893.999)" fill="currentColor"/>
</svg>
