<svg width="18.000000" height="19.000000" viewBox="0 0 18 19" fill="none" xmlns="http://www.w3.org/2000/svg" xmlns:xlink="http://www.w3.org/1999/xlink">
	<desc>
			Created with Pixso.
	</desc>
	<defs>
		<filter id="filter_1753_70402_dd" x="0.000000" y="0.000000" width="18.000000" height="19.000000" filterUnits="userSpaceOnUse" color-interpolation-filters="sRGB">
			<feFlood flood-opacity="0" result="BackgroundImageFix"/>
			<feColorMatrix in="SourceAlpha" type="matrix" values="0 0 0 0 0 0 0 0 0 0 0 0 0 0 0 0 0 0 127 0" result="hardAlpha"/>
			<feOffset dx="0" dy="1"/>
			<feGaussianBlur stdDeviation="0"/>
			<feComposite in2="hardAlpha" operator="out" k2="-1" k3="1"/>
			<feColorMatrix type="matrix" values="0 0 0 0 1 0 0 0 0 1 0 0 0 0 1 0 0 0 0.25 0"/>
			<feBlend mode="normal" in2="BackgroundImageFix" result="effect_dropShadow_1"/>
			<feBlend mode="normal" in="SourceGraphic" in2="effect_dropShadow_1" result="shape"/>
		</filter>
		<clipPath id="clip1753_70402">
			<rect id="微信搜索" width="18.000000" height="18.000000" fill="white" fill-opacity="0"/>
		</clipPath>
		<linearGradient x1="2.533538" y1="6.065433" x2="1.678469" y2="8.476643" id="paint_linear_1753_70403_0" gradientUnits="userSpaceOnUse">
			<stop stop-color="#0088FF"/>
			<stop offset="1.000000" stop-color="#00DDFF"/>
		</linearGradient>
		<linearGradient x1="3.261726" y1="14.964822" x2="5.411300" y2="16.553766" id="paint_linear_1753_70404_0" gradientUnits="userSpaceOnUse">
			<stop stop-color="#0088FF"/>
			<stop offset="1.000000" stop-color="#00DDFF"/>
		</linearGradient>
		<linearGradient x1="8.616556" y1="9.785179" x2="6.027127" y2="10.745214" id="paint_linear_1753_70405_0" gradientUnits="userSpaceOnUse">
			<stop stop-color="#0088FF"/>
			<stop offset="1.000000" stop-color="#00DDFF"/>
		</linearGradient>
		<linearGradient x1="9.288111" y1="6.497069" x2="8.632443" y2="9.096746" id="paint_linear_1753_70406_0" gradientUnits="userSpaceOnUse">
			<stop stop-color="#0088FF"/>
			<stop offset="1.000000" stop-color="#00DDFF"/>
		</linearGradient>
		<linearGradient x1="6.837242" y1="4.569653" x2="9.193937" y2="5.573267" id="paint_linear_1753_70407_0" gradientUnits="userSpaceOnUse">
			<stop stop-color="#0088FF"/>
			<stop offset="1.000000" stop-color="#00DDFF"/>
		</linearGradient>
	</defs>
	<g filter="url(#filter_1753_70402_dd)">
		<g clip-path="url(#clip1753_70402)">
			<path id="path" d="M2.05 6.95L2.02 6.97C1.48 6.84 1.14 6.32 1.27 5.77C1.4 5.22 1.92 4.89 2.47 5.02L2.48 5.04L2.05 6.95ZM4.88 5.6L4.91 5.58C5.45 5.71 5.78 6.24 5.66 6.78C5.53 7.33 5 7.66 4.46 7.53L4.44 7.51L4.88 5.6Z" fill="#000000" fill-opacity="0" fill-rule="nonzero"/>
			<path id="path" d="M2.25 6L4.68 6.56" stroke="url(#paint_linear_1753_70403_0)" stroke-opacity="1.000000" stroke-width="2.000000" stroke-linejoin="round" stroke-linecap="round"/>
			<path id="path" d="M3.93 16.04L3.94 16.06C3.77 16.59 3.21 16.87 2.68 16.69C2.15 16.52 1.87 15.96 2.05 15.43L2.07 15.42L3.93 16.04ZM4.31 8.7L4.3 8.68C4.47 8.15 5.03 7.87 5.56 8.05C6.09 8.22 6.37 8.78 6.19 9.31L6.17 9.32L4.31 8.7Z" fill="#000000" fill-opacity="0" fill-rule="nonzero"/>
			<path id="path" d="M3 15.75L5.25 9" stroke="url(#paint_linear_1753_70404_0)" stroke-opacity="1.000000" stroke-width="2.000000" stroke-linejoin="round" stroke-linecap="round"/>
			<path id="path" d="M7.17 9.68L7.14 9.68C6.76 9.27 6.78 8.65 7.18 8.27C7.59 7.88 8.21 7.9 8.6 8.31L8.6 8.34L7.17 9.68ZM14.94 15.06L14.97 15.06C15.36 15.47 15.34 16.09 14.93 16.47C14.53 16.86 13.9 16.84 13.52 16.43L13.52 16.4L14.94 15.06Z" fill="#000000" fill-opacity="0" fill-rule="nonzero"/>
			<path id="path" d="M7.87 9L14.25 15.75" stroke="url(#paint_linear_1753_70405_0)" stroke-opacity="1.000000" stroke-width="2.000000" stroke-linejoin="round" stroke-linecap="round"/>
			<path id="path" d="M8.53 7.53L8.51 7.55C7.95 7.6 7.48 7.19 7.44 6.63C7.39 6.08 7.8 5.6 8.35 5.56L8.38 5.58L8.53 7.53ZM15.65 5.02L15.67 5C16.23 4.95 16.7 5.36 16.74 5.92C16.78 6.48 16.38 6.95 15.82 6.99L15.8 6.97L15.65 5.02Z" fill="#000000" fill-opacity="0" fill-rule="nonzero"/>
			<path id="path" d="M8.43 6.56L15.75 6" stroke="url(#paint_linear_1753_70406_0)" stroke-opacity="1.000000" stroke-width="2.000000" stroke-linejoin="round" stroke-linecap="round"/>
			<path id="path" d="M7.69 5.12L7.71 5.14C7.55 5.68 7.01 5.99 6.47 5.83C5.93 5.68 5.63 5.13 5.78 4.6L5.81 4.58L7.69 5.12ZM6.55 2L6.53 1.97C6.69 1.43 7.23 1.13 7.77 1.28C8.31 1.44 8.61 1.98 8.46 2.52L8.43 2.53L6.55 2Z" fill="#000000" fill-opacity="0" fill-rule="nonzero"/>
			<path id="path" d="M6.75 4.87L7.5 2.25" stroke="url(#paint_linear_1753_70407_0)" stroke-opacity="1.000000" stroke-width="2.000000" stroke-linejoin="round" stroke-linecap="round"/>
		</g>
	</g>
</svg>
