<?xml version="1.0" encoding="utf-8"?>
<!-- Generator: Adobe Illustrator 25.2.1, SVG Export Plug-In . SVG Version: 6.00 Build 0)  -->
<svg version="1.1" id="图层_1" xmlns="http://www.w3.org/2000/svg" xmlns:xlink="http://www.w3.org/1999/xlink" x="0px" y="0px"
	 viewBox="0 0 240 240" style="enable-background:new 0 0 240 240;" xml:space="preserve">
<style type="text/css">
	.st0{fill:url(#椭圆_2_拷贝_2_2_);}
	.st1{fill-rule:evenodd;clip-rule:evenodd;fill:#EBECEE;}
	.st2{fill-rule:evenodd;clip-rule:evenodd;fill:#FFFFFF;}
	.st3{fill-rule:evenodd;clip-rule:evenodd;fill:url(#形状_2738_2_);}
	.st4{fill-rule:evenodd;clip-rule:evenodd;fill:#D0D6DD;}
	.st5{fill-rule:evenodd;clip-rule:evenodd;fill:#D5DAE1;}
</style>
<linearGradient id="椭圆_2_拷贝_2_2_" gradientUnits="userSpaceOnUse" x1="120" y1="173.0051" x2="120" y2="413.0051" gradientTransform="matrix(1 0 0 -1 0 413)">
	<stop  offset="0" style="stop-color:#FFFFFF"/>
	<stop  offset="1" style="stop-color:#E2E6EA"/>
</linearGradient>
<circle id="椭圆_2_拷贝_2_1_" class="st0" cx="120" cy="120" r="120"/>
<path id="椭圆_2_拷贝_3_1_" class="st1" d="M206.2,203.4c-46,47.6-121.8,49-169.6,3.1c-1-1-2-2-3.1-3.1H206.2z"/>
<path id="形状_2737_1_" class="st2" d="M34.4,90.7c0-0.6-1.2-1.2-2.8-1.4c-0.8-0.2-1.2-0.6-1.4-1.4c-0.2-1.6-0.8-2.8-1.4-2.8
	s-1.2,1.2-1.4,2.8c-0.2,0.8-0.6,1.2-1.4,1.4c-1.6,0.2-2.8,0.8-2.8,1.4s1.2,1.2,2.8,1.4c0.8,0.2,1.2,0.6,1.4,1.4
	c0.2,1.6,0.8,2.8,1.4,2.8s1.2-1.2,1.4-2.8c0.2-0.8,0.6-1.2,1.4-1.4C33.2,91.9,34.4,91.3,34.4,90.7z M75.1,40.7
	c0-1.2-2.4-2.4-6.1-3.1c-1.6-0.2-2.8-1.4-3.1-3.1c-0.6-3.7-1.8-6.1-3.1-6.1c-1.2,0-2.4,2.4-3.1,6.1c-0.2,1.6-1.4,2.8-3.1,3.1
	c-3.7,0.6-6.1,1.8-6.1,3.1s2.4,2.4,6.1,3.1c1.6,0.2,2.8,1.6,3.1,3.1c0.6,3.7,1.8,6.1,3.1,6.1c1.2,0,2.4-2.4,3.1-6.1
	c0.2-1.6,1.4-2.8,3.1-3.1C72.6,43.1,75.1,41.9,75.1,40.7L75.1,40.7L75.1,40.7z M197.7,139.3c-0.4-0.6-1.2-1-2-1c-0.6,0-1-0.4-1-1
	c0-0.8-0.4-1.6-1-2c-0.6,0.4-1,1.2-1,2c0,0.6-0.4,1-1,1c-0.8,0-1.6,0.4-2,1c0.4,0.6,1.2,1,2,1c0.6,0,1,0.4,1,1c0,0.8,0.4,1.6,1,2
	c0.6-0.4,1-1.2,1-2c0-0.6,0.4-1,1-1C196.5,140.3,197.3,139.9,197.7,139.3L197.7,139.3z"/>
<path id="形状_2740_1_" class="st2" d="M174.9,71c0-6.5-1.6-13-4.9-18.7H79.1c-3.3,5.7-4.9,12-4.9,18.7
	c0,16.5,24.2,39.7,39.1,52.3c1.6,1.2,2.6,3.3,2.6,5.3c0,2,17.5,2,17.5,0c0-2,1-4.1,2.6-5.3C150.7,110.6,174.9,87.5,174.9,71z"/>
<path id="形状_2742_1_" class="st2" d="M115.7,130.2c0,2-1,4.1-2.6,5.3c-14.8,12.6-39.1,36-39.1,52.5c0,6.1,1.4,12.2,4.5,17.7
	c4.1,12,83,11.6,91.3,1l0,0c3.3-5.7,4.9-12.2,4.9-18.7c0-16.5-24.2-39.9-39.1-52.5c-1.6-1.2-2.6-3.3-2.6-5.3
	C133.2,128.1,115.7,128.1,115.7,130.2L115.7,130.2L115.7,130.2z"/>
<linearGradient id="形状_2738_2_" gradientUnits="userSpaceOnUse" x1="704.1865" y1="215.5305" x2="704.1865" y2="348.3441" gradientTransform="matrix(1 0 0 -1 -579 412)">
	<stop  offset="0" style="stop-color:#B9C1C9"/>
	<stop  offset="1" style="stop-color:#FFFFFF"/>
</linearGradient>
<path id="形状_2738_1_" class="st3" d="M127.3,136.9c0.2-3.7,3.7-7.5,6.7-10.2c12.8-11,35.2-31.7,35.2-46.6
	c0-5.7-1.4-11.4-4.3-16.5H85.4c-2.8,5.1-4.3,10.6-4.3,16.5c0,15.1,22.4,36.2,35.2,47.2c2.8,2.4,5.9,5.9,5.5,9.4l3.3,59.8
	L127.3,136.9z"/>
<path id="形状_2739_1_" class="st4" d="M165.2,64.3c0,2-13.8,4.7-37.4,4.7s-42.3-2.6-42.3-4.7s18.9-3.7,42.3-3.7
	S165.2,62.4,165.2,64.3z"/>
<path id="形状_2741_1_" class="st5" d="M100.3,198.7c-0.6,0.2-1.2,0.2-1.6,0.4c-10.6,3.7-20.3-1.2-20.3,8.5
	c0,13.4,92.3,12.6,92.3,0c0-10.2-10-4.9-20.5-8.9c-6.3-2.4-18.7-3.9-23.6-4.5c-1.2-0.2-2.4,0-3.9,0.2L100.3,198.7z"/>
</svg>
