<?xml version="1.0" encoding="utf-8"?>
<!-- Generator: Adobe Illustrator 25.2.1, SVG Export Plug-In . SVG Version: 6.00 Build 0)  -->
<svg version="1.1" id="图层_1" xmlns="http://www.w3.org/2000/svg" xmlns:xlink="http://www.w3.org/1999/xlink" x="0px" y="0px"
	 viewBox="0 0 240 240" style="enable-background:new 0 0 240 240;" xml:space="preserve">
<style type="text/css">
	.st0{fill:url(#椭圆_2_1_);}
	.st1{fill-rule:evenodd;clip-rule:evenodd;fill:url(#矩形_2_1_);}
	.st2{fill-rule:evenodd;clip-rule:evenodd;fill:url(#矩形_2_拷贝_2_1_);}
	.st3{fill-rule:evenodd;clip-rule:evenodd;fill:url(#矩形_2_拷贝_1_);}
	.st4{fill-rule:evenodd;clip-rule:evenodd;fill:url(#矩形_2_拷贝_4_1_);}
	.st5{fill-rule:evenodd;clip-rule:evenodd;fill:url(#矩形_2_拷贝_3_1_);}
	.st6{fill-rule:evenodd;clip-rule:evenodd;fill:url(#形状_4_1_);}
	.st7{fill-rule:evenodd;clip-rule:evenodd;fill:url(#形状_5_1_);}
</style>
<g id="无数据">
	<g id="box">
		
			<linearGradient id="椭圆_2_1_" gradientUnits="userSpaceOnUse" x1="120" y1="66" x2="120" y2="-159.1187" gradientTransform="matrix(1 0 0 1 0 174)">
			<stop  offset="0" style="stop-color:#F5F6F7"/>
			<stop  offset="1" style="stop-color:#E9ECEF"/>
		</linearGradient>
		<circle id="椭圆_2" class="st0" cx="120" cy="127.4" r="112.6"/>
		
			<linearGradient id="矩形_2_1_" gradientUnits="userSpaceOnUse" x1="407.267" y1="30.7521" x2="407.267" y2="-77.4041" gradientTransform="matrix(1 0 0 1 -239 173)">
			<stop  offset="0" style="stop-color:#DBDEE5"/>
			<stop  offset="1" style="stop-color:#C2C8D1"/>
		</linearGradient>
		<path id="矩形_2" class="st1" d="M138.9,112l58.8-16.4v76.3l-58.8,31.7V112z"/>
		
			<linearGradient id="矩形_2_拷贝_2_1_" gradientUnits="userSpaceOnUse" x1="417.9506" y1="-31.3826" x2="417.9506" y2="-77.3602" gradientTransform="matrix(1 0 0 1 -239 173)">
			<stop  offset="0" style="stop-color:#BBC1CB"/>
			<stop  offset="1" style="stop-color:#FFFFFF"/>
		</linearGradient>
		<path id="矩形_2_拷贝_2" class="st2" d="M138.9,112l58.8-16.4l21.4,18.1l-58.8,27.9L138.9,112z"/>
		
			<linearGradient id="矩形_2_拷贝_1_" gradientUnits="userSpaceOnUse" x1="336.1066" y1="30.7521" x2="336.1066" y2="-69.2159" gradientTransform="matrix(1 0 0 1 -239 173)">
			<stop  offset="0" style="stop-color:#FFFFFF"/>
			<stop  offset="1" style="stop-color:#EAECEF"/>
		</linearGradient>
		<path id="矩形_2_拷贝" class="st3" d="M55.3,103.8l83.6,8.2v91.8l-83.6-15.3C55.3,188.5,55.3,103.8,55.3,103.8z"/>
		
			<linearGradient id="矩形_2_拷贝_4_1_" gradientUnits="userSpaceOnUse" x1="363.8648" y1="-60.9399" x2="363.8648" y2="-85.6229" gradientTransform="matrix(1 0 0 1 -239 173)">
			<stop  offset="0" style="stop-color:#B1B9C3"/>
			<stop  offset="1" style="stop-color:#F8F9FA"/>
		</linearGradient>
		<path id="矩形_2_拷贝_4" class="st4" d="M55.3,103.8l83.6,8.2l55.5-16.4l-77.1-8.2L55.3,103.8z"/>
		
			<linearGradient id="矩形_2_拷贝_3_1_" gradientUnits="userSpaceOnUse" x1="331.4557" y1="-31.6011" x2="319.1734" y2="-69.4001" gradientTransform="matrix(1 0 0 1 -239 173)">
			<stop  offset="0" style="stop-color:#C9CFD7"/>
			<stop  offset="0.826" style="stop-color:#FCFDFE"/>
			<stop  offset="0.857" style="stop-color:#FCFDFE"/>
		</linearGradient>
		<path id="矩形_2_拷贝_3" class="st5" d="M55.3,103.8l83.6,8.2L119,141.6c0,0-41.2-5.2-63.7-8.6c-11.3-1.5-23.1-4.6-23.1-4.6
			c5.3-3.4,9.9-7.6,13.9-12.6L55.3,103.8z"/>
		
			<linearGradient id="形状_4_1_" gradientUnits="userSpaceOnUse" x1="277.8876" y1="-158.5721" x2="335.1212" y2="-118.4971" gradientTransform="matrix(1 0 0 1 -239 173)">
			<stop  offset="0" style="stop-color:#F5F5F6"/>
			<stop  offset="0.102" style="stop-color:#F5F5F6"/>
			<stop  offset="0.449" style="stop-color:#CDD5E0"/>
			<stop  offset="0.745" style="stop-color:#EAECEF"/>
			<stop  offset="1" style="stop-color:#EAECEF"/>
		</linearGradient>
		<path id="形状_4" class="st6" d="M76,0L36.3,38.2c0,0,12.2,31.3,37.4,38.2l19.8-22.5C93.5,53.8,60.3,46.9,76,0z"/>
		
			<linearGradient id="形状_5_1_" gradientUnits="userSpaceOnUse" x1="395.0367" y1="-68.6283" x2="385.3223" y2="-104.8763" gradientTransform="matrix(1 0 0 1 -239 173)">
			<stop  offset="0" style="stop-color:#EAECEF"/>
			<stop  offset="0.765" style="stop-color:#CDD5E0"/>
			<stop  offset="1" style="stop-color:#EAECEF"/>
		</linearGradient>
		<path id="形状_5" class="st7" d="M139.1,76.1l18.7-7.8c0,0,9.3,25,0,33.6l-13.4,2.7C144.4,104.5,149,78.6,139.1,76.1z"/>
	</g>
</g>
</svg>
